<svg width="1440" height="499" viewBox="0 0 1440 499" fill="none" xmlns="http://www.w3.org/2000/svg">
<g clip-path="url(#clip0_1_190)">
<rect width="1440" height="499" fill="#FCEBEA"/>
<rect x="1280" y="462.057" width="15.4146" height="15.4146" fill="#F4F4F4"/>
<rect x="1280" y="414.528" width="15.4146" height="15.4146" fill="#F4F4F4"/>
<rect x="1280" y="367" width="15.4146" height="15.4146" fill="#F4F4F4"/>
<rect x="1327.53" y="462.057" width="15.4146" height="15.4146" fill="#F4F4F4"/>
<rect x="1327.53" y="414.528" width="15.4146" height="15.4146" fill="#F4F4F4"/>
<rect x="1327.53" y="367" width="15.4146" height="15.4146" fill="#ED553B"/>
<rect x="1375.06" y="462.057" width="15.4146" height="15.4146" fill="#F4F4F4"/>
<rect x="1375.06" y="414.528" width="15.4146" height="15.4146" fill="#F1AD28"/>
<rect x="1375.06" y="367" width="15.4146" height="15.4146" fill="#F4F4F4"/>
<rect x="1422.59" y="462.057" width="15.4146" height="15.4146" fill="#F4F4F4"/>
<rect x="1422.59" y="414.528" width="15.4146" height="15.4146" fill="#F4F4F4"/>
<rect x="1422.59" y="367" width="15.4146" height="15.4146" fill="#F1AD28"/>
<rect x="14.5854" y="142.585" width="15.4146" height="15.4146" fill="#F4F4F4"/>
<rect x="14.5854" y="95.0571" width="15.4146" height="15.4146" fill="#F4F4F4"/>
<rect x="14.5854" y="47.5283" width="15.4146" height="15.4146" fill="#F4F4F4"/>
<rect x="14.5854" width="15.4146" height="15.4146" fill="#F1AD28"/>
<rect x="62.1138" y="142.585" width="15.4146" height="15.4146" fill="#F4F4F4"/>
<rect x="62.1138" y="95.0571" width="15.4146" height="15.4146" fill="#F4F4F4"/>
<rect x="62.1138" y="47.5283" width="15.4146" height="15.4146" fill="#ED553B"/>
<rect x="62.1138" width="15.4146" height="15.4146" fill="#F4F4F4"/>
<rect y="498.528" width="15.4146" height="15.4146" fill="#F4F4F4"/>
<rect y="451" width="15.4146" height="15.4146" fill="#F4F4F4"/>
<rect x="47.5285" y="498.528" width="15.4146" height="15.4146" fill="#F4F4F4"/>
<rect x="47.5285" y="451" width="15.4146" height="15.4146" fill="white"/>
<rect x="95.0569" y="498.528" width="15.4146" height="15.4146" fill="white"/>
<rect x="95.0569" y="451" width="15.4146" height="15.4146" fill="#F4F4F4"/>
<rect x="142.585" y="498.528" width="15.4146" height="15.4146" fill="#F4F4F4"/>
<rect x="142.585" y="451" width="15.4146" height="15.4146" fill="white"/>
<rect x="190.114" y="498.528" width="15.4146" height="15.4146" fill="white"/>
<rect x="190.114" y="451" width="15.4146" height="15.4146" fill="#F4F4F4"/>
</g>
<defs>
<clipPath id="clip0_1_190">
<rect width="1440" height="499" fill="white"/>
</clipPath>
</defs>
</svg>
